<?xml version="1.0" encoding="UTF-8"?> <svg xmlns="http://www.w3.org/2000/svg" width="375" height="306" viewBox="0 0 375 306" fill="none"><mask id="mask0" maskUnits="userSpaceOnUse" x="0" y="16" width="361" height="289"><rect y="16" width="361" height="289" fill="#C4C4C4"></rect></mask><g mask="url(#mask0)"><mask id="mask1" maskUnits="userSpaceOnUse" x="-31" y="-109" width="500" height="484"><rect x="-31" y="-109" width="500" height="483.871" fill="white"></rect></mask><g mask="url(#mask1)"><rect x="-31" y="-109" width="500" height="483.871" fill="white"></rect><line x1="469" y1="304.161" x2="-34.2258" y2="304.161" stroke="#E0E0E0" stroke-width="0.806452"></line><line x1="469" y1="286.163" x2="-34.2258" y2="286.163" stroke="#E0E0E0" stroke-width="0.81"></line><line x1="469" y1="268.161" x2="-34.2258" y2="268.161" stroke="#E0E0E0" stroke-width="0.806452"></line><line x1="469" y1="250.161" x2="-34.2258" y2="250.161" stroke="#E0E0E0" stroke-width="0.806452"></line><line x1="469" y1="232.161" x2="-34.2258" y2="232.161" stroke="#E0E0E0" stroke-width="0.806452"></line><line x1="469" y1="214.163" x2="-34.2258" y2="214.163" stroke="#E0E0E0" stroke-width="0.81"></line><line x1="469" y1="196.161" x2="-34.2258" y2="196.161" stroke="#E0E0E0" stroke-width="0.806452"></line><line x1="469" y1="178.161" x2="-34.2258" y2="178.161" stroke="#E0E0E0" stroke-width="0.806452"></line><line x1="469" y1="160.161" x2="-34.2258" y2="160.161" stroke="#E0E0E0" stroke-width="0.806452"></line><line x1="469" y1="142.163" x2="-34.2258" y2="142.163" stroke="#E0E0E0" stroke-width="0.81"></line><line x1="469" y1="124.161" x2="-34.2258" y2="124.161" stroke="#E0E0E0" stroke-width="0.806452"></line><line x1="469" y1="106.161" x2="-34.2258" y2="106.161" stroke="#E0E0E0" stroke-width="0.806452"></line><line x1="469" y1="88.161" x2="-34.2258" y2="88.161" stroke="#E0E0E0" stroke-width="0.806452"></line><line x1="469" y1="70.1628" x2="-34.2258" y2="70.1628" stroke="#E0E0E0" stroke-width="0.81"></line><line x1="469" y1="52.161" x2="-34.2258" y2="52.161" stroke="#E0E0E0" stroke-width="0.806452"></line><line x1="469" y1="34.161" x2="-34.2258" y2="34.161" stroke="#E0E0E0" stroke-width="0.806452"></line><line x1="469" y1="16.161" x2="-34.2258" y2="16.161" stroke="#E0E0E0" stroke-width="0.806452"></line><line x1="0.467868" y1="374.871" x2="0.467868" y2="-109" stroke="#E0E0E0" stroke-width="0.806452"></line><line x1="18.4679" y1="374.871" x2="18.4679" y2="-109" stroke="#E0E0E0" stroke-width="0.806452"></line><line x1="36.4679" y1="374.871" x2="36.4679" y2="-109" stroke="#E0E0E0" stroke-width="0.806452"></line><line x1="54.4661" y1="374.871" x2="54.4661" y2="-109" stroke="#E0E0E0" stroke-width="0.81"></line><line x1="72.4679" y1="374.871" x2="72.4679" y2="-109" stroke="#E0E0E0" stroke-width="0.806452"></line><line x1="90.4679" y1="374.871" x2="90.4679" y2="-109" stroke="#E0E0E0" stroke-width="0.806452"></line><line x1="108.468" y1="374.871" x2="108.468" y2="-109" stroke="#E0E0E0" stroke-width="0.806452"></line><line x1="126.466" y1="374.871" x2="126.466" y2="-109" stroke="#E0E0E0" stroke-width="0.81"></line><line x1="144.468" y1="374.871" x2="144.468" y2="-109" stroke="#E0E0E0" stroke-width="0.806452"></line><line x1="162.468" y1="374.871" x2="162.468" y2="-109" stroke="#E0E0E0" stroke-width="0.806452"></line><line x1="180.468" y1="374.871" x2="180.468" y2="-109" stroke="#E0E0E0" stroke-width="0.806452"></line><line x1="198.466" y1="374.871" x2="198.466" y2="-109" stroke="#E0E0E0" stroke-width="0.81"></line><line x1="216.468" y1="374.871" x2="216.468" y2="-109" stroke="#E0E0E0" stroke-width="0.806452"></line><line x1="234.468" y1="374.871" x2="234.468" y2="-109" stroke="#E0E0E0" stroke-width="0.806452"></line><line x1="252.468" y1="374.871" x2="252.468" y2="-109" stroke="#E0E0E0" stroke-width="0.806452"></line><line x1="270.466" y1="374.871" x2="270.466" y2="-109" stroke="#E0E0E0" stroke-width="0.81"></line><line x1="288.468" y1="374.871" x2="288.468" y2="-109" stroke="#E0E0E0" stroke-width="0.806452"></line><line x1="306.468" y1="374.871" x2="306.468" y2="-109" stroke="#E0E0E0" stroke-width="0.806452"></line><line x1="324.468" y1="374.871" x2="324.468" y2="-109" stroke="#E0E0E0" stroke-width="0.806452"></line><line x1="342.466" y1="374.871" x2="342.466" y2="-109" stroke="#E0E0E0" stroke-width="0.81"></line><line x1="360.468" y1="374.871" x2="360.468" y2="-109" stroke="#E0E0E0" stroke-width="0.806452"></line></g><line x1="180.5" y1="-8" x2="180.5" y2="345" stroke="#9E9E9E" stroke-width="3"></line><line x1="-46" y1="159.5" x2="413" y2="159.5" stroke="#9E9E9E" stroke-width="3"></line><path d="M92 319.5L251.5 0.5" stroke="#398CDA" stroke-width="2"></path></g><path d="M176.634 167.689C176.634 168.35 176.541 168.967 176.355 169.54C176.245 169.892 176.095 170.18 175.906 170.404C175.721 170.629 175.509 170.808 175.271 170.941C175.034 171.072 174.775 171.137 174.495 171.137C174.176 171.137 173.888 171.055 173.631 170.893C173.374 170.73 173.146 170.497 172.947 170.194C172.804 169.973 172.679 169.678 172.571 169.311C172.431 168.812 172.361 168.298 172.361 167.768C172.361 167.048 172.462 166.387 172.664 165.785C172.83 165.287 173.082 164.906 173.421 164.643C173.759 164.376 174.118 164.242 174.495 164.242C174.879 164.242 175.237 164.374 175.569 164.638C175.905 164.898 176.15 165.25 176.307 165.692C176.525 166.301 176.634 166.967 176.634 167.689ZM175.13 167.68C175.13 166.521 175.123 165.845 175.11 165.653C175.078 165.201 175 164.895 174.876 164.735C174.795 164.631 174.663 164.579 174.48 164.579C174.34 164.579 174.23 164.618 174.148 164.696C174.028 164.81 173.947 165.012 173.904 165.302C173.862 165.588 173.841 166.592 173.841 168.314C173.841 169.252 173.873 169.88 173.938 170.199C173.987 170.43 174.057 170.585 174.148 170.663C174.24 170.741 174.36 170.78 174.51 170.78C174.673 170.78 174.795 170.728 174.876 170.624C175.013 170.442 175.091 170.16 175.11 169.779L175.13 167.68Z" fill="#757575"></path><path d="M175.257 138.242V143.657C175.257 144.064 175.275 144.325 175.311 144.438C175.346 144.549 175.421 144.64 175.535 144.712C175.649 144.784 175.831 144.819 176.082 144.819H176.233V145H172.747V144.819H172.923C173.206 144.819 173.408 144.787 173.528 144.722C173.649 144.657 173.73 144.567 173.772 144.453C173.815 144.339 173.836 144.074 173.836 143.657V140.225C173.836 139.919 173.821 139.728 173.792 139.653C173.763 139.575 173.707 139.51 173.626 139.458C173.548 139.403 173.457 139.375 173.353 139.375C173.187 139.375 172.985 139.427 172.747 139.531L172.659 139.355L175.096 138.242H175.257Z" fill="#757575"></path><path d="M176.141 128H172.244V127.893C173.439 126.47 174.163 125.513 174.417 125.021C174.674 124.53 174.803 124.05 174.803 123.581C174.803 123.239 174.697 122.956 174.485 122.731C174.274 122.504 174.015 122.39 173.709 122.39C173.208 122.39 172.819 122.64 172.542 123.142L172.361 123.078C172.537 122.453 172.804 121.991 173.162 121.691C173.52 121.392 173.934 121.242 174.402 121.242C174.738 121.242 175.044 121.32 175.32 121.477C175.597 121.633 175.813 121.848 175.97 122.121C176.126 122.391 176.204 122.645 176.204 122.883C176.204 123.316 176.084 123.755 175.843 124.201C175.514 124.803 174.796 125.643 173.689 126.721H175.12C175.472 126.721 175.7 126.706 175.804 126.677C175.911 126.647 175.999 126.599 176.067 126.53C176.136 126.459 176.225 126.311 176.336 126.086H176.512L176.141 128Z" fill="#757575"></path><path d="M173.479 105.68V105.509C173.851 105.401 174.108 105.302 174.251 105.211C174.394 105.117 174.518 104.975 174.622 104.786C174.726 104.594 174.778 104.4 174.778 104.205C174.778 103.935 174.679 103.704 174.48 103.512C174.285 103.316 174.041 103.219 173.748 103.219C173.292 103.219 172.905 103.46 172.586 103.941L172.405 103.878C172.64 103.334 172.939 102.926 173.304 102.652C173.672 102.379 174.08 102.242 174.529 102.242C174.988 102.242 175.366 102.382 175.662 102.662C175.962 102.942 176.111 103.269 176.111 103.644C176.111 103.888 176.041 104.124 175.901 104.352C175.765 104.576 175.548 104.775 175.252 104.947C175.633 105.133 175.923 105.362 176.121 105.636C176.323 105.906 176.424 106.246 176.424 106.656C176.424 107.346 176.173 107.934 175.672 108.419C175.174 108.901 174.505 109.142 173.665 109.142C173.105 109.142 172.697 109.049 172.439 108.863C172.254 108.733 172.161 108.565 172.161 108.36C172.161 108.211 172.215 108.084 172.322 107.979C172.43 107.872 172.553 107.818 172.693 107.818C172.801 107.818 172.902 107.841 172.996 107.887C173.048 107.913 173.232 108.056 173.548 108.316C173.867 108.574 174.165 108.702 174.441 108.702C174.682 108.702 174.889 108.608 175.062 108.419C175.234 108.227 175.32 107.984 175.32 107.691C175.32 107.245 175.164 106.835 174.852 106.461C174.539 106.083 174.082 105.823 173.479 105.68Z" fill="#757575"></path><path d="M172.249 88.5049L175.394 84.2422H175.989V88.5049H176.595V89.5156H175.989V91H174.646V89.5156H172.249V88.5049ZM172.723 88.5049H174.646V85.8926L172.723 88.5049Z" fill="#757575"></path><path d="M173.523 66.3789H176.624L176.131 67.6387H173.523L173.274 68.2979C174.397 68.3402 175.262 68.6201 175.867 69.1377C176.365 69.5641 176.614 70.0947 176.614 70.7295C176.614 71.1364 176.499 71.5352 176.268 71.9258C176.036 72.3132 175.711 72.6126 175.291 72.8242C174.871 73.0326 174.41 73.1367 173.909 73.1367C173.369 73.1367 172.954 73.0358 172.664 72.834C172.462 72.6908 172.361 72.528 172.361 72.3457C172.361 72.2057 172.413 72.082 172.518 71.9746C172.625 71.8672 172.749 71.8135 172.889 71.8135C173.016 71.8135 173.144 71.8395 173.274 71.8916C173.405 71.9437 173.628 72.0804 173.943 72.3018C174.142 72.4385 174.313 72.5329 174.456 72.585C174.557 72.624 174.671 72.6436 174.798 72.6436C175.065 72.6436 175.291 72.5459 175.477 72.3506C175.665 72.1553 175.76 71.9209 175.76 71.6475C175.76 71.0745 175.473 70.609 174.9 70.251C174.327 69.8929 173.605 69.7139 172.732 69.7139C172.645 69.7139 172.513 69.7155 172.337 69.7188L173.523 66.3789Z" fill="#757575"></path><path d="M176.697 48.2422V48.3789C176.108 48.5286 175.634 48.7223 175.276 48.96C174.922 49.1943 174.64 49.4808 174.432 49.8193C174.227 50.1546 174.067 50.5713 173.953 51.0693C174.096 50.9717 174.215 50.9082 174.31 50.8789C174.521 50.8138 174.734 50.7812 174.949 50.7812C175.444 50.7812 175.856 50.9619 176.185 51.3232C176.517 51.6813 176.683 52.1712 176.683 52.793C176.683 53.2292 176.593 53.6296 176.414 53.9941C176.235 54.3587 175.981 54.6403 175.652 54.8389C175.324 55.0374 174.972 55.1367 174.598 55.1367C174.191 55.1367 173.815 55.026 173.47 54.8047C173.125 54.5801 172.854 54.2529 172.659 53.8232C172.467 53.3936 172.371 52.9264 172.371 52.4219C172.371 51.6797 172.549 50.9896 172.903 50.3516C173.261 49.7103 173.768 49.2008 174.422 48.8232C175.079 48.4424 175.838 48.2487 176.697 48.2422ZM173.89 51.4648C173.864 51.9141 173.851 52.2428 173.851 52.4512C173.851 52.9004 173.893 53.335 173.978 53.7549C174.065 54.1748 174.184 54.4694 174.334 54.6387C174.441 54.7591 174.568 54.8193 174.715 54.8193C174.865 54.8193 174.998 54.7331 175.115 54.5605C175.232 54.3848 175.291 54.0299 175.291 53.4961C175.291 52.5977 175.182 51.9775 174.964 51.6357C174.824 51.4144 174.635 51.3037 174.397 51.3037C174.267 51.3037 174.098 51.3574 173.89 51.4648Z" fill="#757575"></path><path d="M173.772 38.1367L175.574 32.6729H174.202C173.665 32.6729 173.261 32.7428 172.991 32.8828C172.802 32.9805 172.646 33.1644 172.522 33.4346H172.337L172.815 31.3789H176.761L174.539 38.1367H173.772Z" fill="#757575"></path><path d="M172.091 179.208H169.244V178.197H172.091V179.208ZM175.737 174.242V179.657C175.737 180.064 175.755 180.325 175.791 180.438C175.826 180.549 175.901 180.64 176.015 180.712C176.129 180.784 176.311 180.819 176.562 180.819H176.713V181H173.227V180.819H173.403C173.686 180.819 173.888 180.787 174.008 180.722C174.129 180.657 174.21 180.567 174.253 180.453C174.295 180.339 174.316 180.074 174.316 179.657V176.225C174.316 175.919 174.301 175.728 174.272 175.653C174.243 175.575 174.187 175.51 174.106 175.458C174.028 175.403 173.937 175.375 173.833 175.375C173.667 175.375 173.465 175.427 173.227 175.531L173.139 175.355L175.576 174.242H175.737Z" fill="#757575"></path><path d="M172.091 196.208H169.244V195.197H172.091V196.208ZM176.621 198H172.724V197.893C173.919 196.47 174.643 195.513 174.897 195.021C175.154 194.53 175.283 194.05 175.283 193.581C175.283 193.239 175.177 192.956 174.965 192.731C174.754 192.504 174.495 192.39 174.189 192.39C173.688 192.39 173.299 192.64 173.022 193.142L172.841 193.078C173.017 192.453 173.284 191.991 173.642 191.691C174 191.392 174.414 191.242 174.882 191.242C175.218 191.242 175.524 191.32 175.8 191.477C176.077 191.633 176.294 191.848 176.45 192.121C176.606 192.391 176.684 192.645 176.684 192.883C176.684 193.316 176.564 193.755 176.323 194.201C175.994 194.803 175.276 195.643 174.17 196.721H175.6C175.952 196.721 176.18 196.706 176.284 196.677C176.391 196.647 176.479 196.599 176.547 196.53C176.616 196.459 176.705 196.311 176.816 196.086H176.992L176.621 198Z" fill="#757575"></path><path d="M172.091 214.208H169.244V213.197H172.091V214.208ZM173.96 212.68V212.509C174.331 212.401 174.588 212.302 174.731 212.211C174.874 212.117 174.998 211.975 175.102 211.786C175.206 211.594 175.258 211.4 175.258 211.205C175.258 210.935 175.159 210.704 174.961 210.512C174.765 210.316 174.521 210.219 174.228 210.219C173.772 210.219 173.385 210.46 173.066 210.941L172.885 210.878C173.12 210.334 173.419 209.926 173.784 209.652C174.152 209.379 174.56 209.242 175.009 209.242C175.468 209.242 175.846 209.382 176.142 209.662C176.442 209.942 176.591 210.269 176.591 210.644C176.591 210.888 176.521 211.124 176.381 211.352C176.245 211.576 176.028 211.775 175.732 211.947C176.113 212.133 176.403 212.362 176.601 212.636C176.803 212.906 176.904 213.246 176.904 213.656C176.904 214.346 176.653 214.934 176.152 215.419C175.654 215.901 174.985 216.142 174.145 216.142C173.585 216.142 173.177 216.049 172.92 215.863C172.734 215.733 172.641 215.565 172.641 215.36C172.641 215.211 172.695 215.084 172.802 214.979C172.91 214.872 173.033 214.818 173.173 214.818C173.281 214.818 173.382 214.841 173.476 214.887C173.528 214.913 173.712 215.056 174.028 215.316C174.347 215.574 174.645 215.702 174.921 215.702C175.162 215.702 175.369 215.608 175.542 215.419C175.714 215.227 175.8 214.984 175.8 214.691C175.8 214.245 175.644 213.835 175.332 213.461C175.019 213.083 174.562 212.823 173.96 212.68Z" fill="#757575"></path><path d="M172.091 232.208H169.244V231.197H172.091V232.208ZM172.729 231.505L175.874 227.242H176.469V231.505H177.075V232.516H176.469V234H175.127V232.516H172.729V231.505ZM173.203 231.505H175.127V228.893L173.203 231.505Z" fill="#757575"></path><path d="M172.091 250.208H169.244V249.197H172.091V250.208ZM174.004 245.379H177.104L176.611 246.639H174.004L173.754 247.298C174.878 247.34 175.742 247.62 176.347 248.138C176.845 248.564 177.094 249.095 177.094 249.729C177.094 250.136 176.979 250.535 176.748 250.926C176.517 251.313 176.191 251.613 175.771 251.824C175.351 252.033 174.891 252.137 174.389 252.137C173.849 252.137 173.434 252.036 173.144 251.834C172.942 251.691 172.841 251.528 172.841 251.346C172.841 251.206 172.893 251.082 172.998 250.975C173.105 250.867 173.229 250.813 173.369 250.813C173.496 250.813 173.624 250.84 173.754 250.892C173.885 250.944 174.108 251.08 174.423 251.302C174.622 251.438 174.793 251.533 174.936 251.585C175.037 251.624 175.151 251.644 175.278 251.644C175.545 251.644 175.771 251.546 175.957 251.351C176.145 251.155 176.24 250.921 176.24 250.647C176.24 250.075 175.953 249.609 175.38 249.251C174.808 248.893 174.085 248.714 173.213 248.714C173.125 248.714 172.993 248.715 172.817 248.719L174.004 245.379Z" fill="#757575"></path><path d="M172.091 268.208H169.244V267.197H172.091V268.208ZM177.177 263.242V263.379C176.588 263.529 176.115 263.722 175.756 263.96C175.402 264.194 175.12 264.481 174.912 264.819C174.707 265.155 174.547 265.571 174.433 266.069C174.576 265.972 174.695 265.908 174.79 265.879C175.001 265.814 175.214 265.781 175.429 265.781C175.924 265.781 176.336 265.962 176.665 266.323C176.997 266.681 177.163 267.171 177.163 267.793C177.163 268.229 177.073 268.63 176.894 268.994C176.715 269.359 176.461 269.64 176.132 269.839C175.804 270.037 175.452 270.137 175.078 270.137C174.671 270.137 174.295 270.026 173.95 269.805C173.605 269.58 173.335 269.253 173.139 268.823C172.947 268.394 172.851 267.926 172.851 267.422C172.851 266.68 173.029 265.99 173.383 265.352C173.741 264.71 174.248 264.201 174.902 263.823C175.56 263.442 176.318 263.249 177.177 263.242ZM174.37 266.465C174.344 266.914 174.331 267.243 174.331 267.451C174.331 267.9 174.373 268.335 174.458 268.755C174.546 269.175 174.664 269.469 174.814 269.639C174.921 269.759 175.048 269.819 175.195 269.819C175.345 269.819 175.478 269.733 175.595 269.561C175.713 269.385 175.771 269.03 175.771 268.496C175.771 267.598 175.662 266.978 175.444 266.636C175.304 266.414 175.115 266.304 174.878 266.304C174.747 266.304 174.578 266.357 174.37 266.465Z" fill="#757575"></path><path d="M172.091 287.208H169.244V286.197H172.091V287.208ZM174.253 289.137L176.054 283.673H174.682C174.145 283.673 173.741 283.743 173.471 283.883C173.282 283.98 173.126 284.164 173.003 284.435H172.817L173.296 282.379H177.241L175.019 289.137H174.253Z" fill="#757575"></path><path d="M199.257 164.242V169.657C199.257 170.064 199.275 170.325 199.311 170.438C199.346 170.549 199.421 170.64 199.535 170.712C199.649 170.784 199.831 170.819 200.082 170.819H200.233V171H196.747V170.819H196.923C197.206 170.819 197.408 170.787 197.528 170.722C197.649 170.657 197.73 170.567 197.772 170.453C197.815 170.339 197.836 170.074 197.836 169.657V166.225C197.836 165.919 197.821 165.728 197.792 165.653C197.763 165.575 197.707 165.51 197.626 165.458C197.548 165.403 197.457 165.375 197.353 165.375C197.187 165.375 196.985 165.427 196.747 165.531L196.659 165.355L199.096 164.242H199.257Z" fill="#757575"></path><path d="M218.141 171H214.244V170.893C215.439 169.47 216.163 168.513 216.417 168.021C216.674 167.53 216.803 167.05 216.803 166.581C216.803 166.239 216.697 165.956 216.485 165.731C216.274 165.504 216.015 165.39 215.709 165.39C215.208 165.39 214.819 165.64 214.542 166.142L214.361 166.078C214.537 165.453 214.804 164.991 215.162 164.691C215.52 164.392 215.934 164.242 216.402 164.242C216.738 164.242 217.044 164.32 217.32 164.477C217.597 164.633 217.813 164.848 217.97 165.121C218.126 165.391 218.204 165.645 218.204 165.883C218.204 166.316 218.084 166.755 217.843 167.201C217.514 167.803 216.796 168.643 215.689 169.721H217.12C217.472 169.721 217.7 169.706 217.804 169.677C217.911 169.647 217.999 169.599 218.067 169.53C218.136 169.459 218.225 169.311 218.336 169.086H218.512L218.141 171Z" fill="#757575"></path><path d="M233.479 167.68V167.509C233.851 167.401 234.108 167.302 234.251 167.211C234.394 167.117 234.518 166.975 234.622 166.786C234.726 166.594 234.778 166.4 234.778 166.205C234.778 165.935 234.679 165.704 234.48 165.512C234.285 165.316 234.041 165.219 233.748 165.219C233.292 165.219 232.905 165.46 232.586 165.941L232.405 165.878C232.64 165.334 232.939 164.926 233.304 164.652C233.672 164.379 234.08 164.242 234.529 164.242C234.988 164.242 235.366 164.382 235.662 164.662C235.962 164.942 236.111 165.269 236.111 165.644C236.111 165.888 236.041 166.124 235.901 166.352C235.765 166.576 235.548 166.775 235.252 166.947C235.633 167.133 235.923 167.362 236.121 167.636C236.323 167.906 236.424 168.246 236.424 168.656C236.424 169.346 236.173 169.934 235.672 170.419C235.174 170.901 234.505 171.142 233.665 171.142C233.105 171.142 232.697 171.049 232.439 170.863C232.254 170.733 232.161 170.565 232.161 170.36C232.161 170.211 232.215 170.084 232.322 169.979C232.43 169.872 232.553 169.818 232.693 169.818C232.801 169.818 232.902 169.841 232.996 169.887C233.048 169.913 233.232 170.056 233.548 170.316C233.867 170.574 234.165 170.702 234.441 170.702C234.682 170.702 234.889 170.608 235.062 170.419C235.234 170.227 235.32 169.984 235.32 169.691C235.32 169.245 235.164 168.835 234.852 168.461C234.539 168.083 234.082 167.823 233.479 167.68Z" fill="#757575"></path><path d="M250.249 168.505L253.394 164.242H253.989V168.505H254.595V169.516H253.989V171H252.646V169.516H250.249V168.505ZM250.723 168.505H252.646V165.893L250.723 168.505Z" fill="#757575"></path><path d="M269.523 164.379H272.624L272.131 165.639H269.523L269.274 166.298C270.397 166.34 271.262 166.62 271.867 167.138C272.365 167.564 272.614 168.095 272.614 168.729C272.614 169.136 272.499 169.535 272.268 169.926C272.036 170.313 271.711 170.613 271.291 170.824C270.871 171.033 270.41 171.137 269.909 171.137C269.369 171.137 268.954 171.036 268.664 170.834C268.462 170.691 268.361 170.528 268.361 170.346C268.361 170.206 268.413 170.082 268.518 169.975C268.625 169.867 268.749 169.813 268.889 169.813C269.016 169.813 269.144 169.84 269.274 169.892C269.405 169.944 269.628 170.08 269.943 170.302C270.142 170.438 270.313 170.533 270.456 170.585C270.557 170.624 270.671 170.644 270.798 170.644C271.065 170.644 271.291 170.546 271.477 170.351C271.665 170.155 271.76 169.921 271.76 169.647C271.76 169.075 271.473 168.609 270.9 168.251C270.327 167.893 269.605 167.714 268.732 167.714C268.645 167.714 268.513 167.715 268.337 167.719L269.523 164.379Z" fill="#757575"></path><path d="M290.697 164.242V164.379C290.108 164.529 289.634 164.722 289.276 164.96C288.922 165.194 288.64 165.481 288.432 165.819C288.227 166.155 288.067 166.571 287.953 167.069C288.096 166.972 288.215 166.908 288.31 166.879C288.521 166.814 288.734 166.781 288.949 166.781C289.444 166.781 289.856 166.962 290.185 167.323C290.517 167.681 290.683 168.171 290.683 168.793C290.683 169.229 290.593 169.63 290.414 169.994C290.235 170.359 289.981 170.64 289.652 170.839C289.324 171.037 288.972 171.137 288.598 171.137C288.191 171.137 287.815 171.026 287.47 170.805C287.125 170.58 286.854 170.253 286.659 169.823C286.467 169.394 286.371 168.926 286.371 168.422C286.371 167.68 286.549 166.99 286.903 166.352C287.261 165.71 287.768 165.201 288.422 164.823C289.079 164.442 289.838 164.249 290.697 164.242ZM287.89 167.465C287.864 167.914 287.851 168.243 287.851 168.451C287.851 168.9 287.893 169.335 287.978 169.755C288.065 170.175 288.184 170.469 288.334 170.639C288.441 170.759 288.568 170.819 288.715 170.819C288.865 170.819 288.998 170.733 289.115 170.561C289.232 170.385 289.291 170.03 289.291 169.496C289.291 168.598 289.182 167.978 288.964 167.636C288.824 167.414 288.635 167.304 288.397 167.304C288.267 167.304 288.098 167.357 287.89 167.465Z" fill="#757575"></path><path d="M305.772 171.137L307.574 165.673H306.202C305.665 165.673 305.261 165.743 304.991 165.883C304.802 165.98 304.646 166.164 304.522 166.435H304.337L304.815 164.379H308.761L306.539 171.137H305.772Z" fill="#757575"></path><path d="M325.408 167.26C325.874 167.602 326.196 167.921 326.375 168.217C326.557 168.51 326.648 168.847 326.648 169.228C326.648 169.761 326.447 170.214 326.043 170.585C325.643 170.953 325.097 171.137 324.407 171.137C323.753 171.137 323.247 170.976 322.889 170.653C322.531 170.331 322.352 169.937 322.352 169.472C322.352 169.117 322.454 168.806 322.659 168.539C322.868 168.272 323.213 168.028 323.694 167.807C323.17 167.406 322.833 167.079 322.684 166.825C322.537 166.571 322.464 166.277 322.464 165.941C322.464 165.499 322.651 165.11 323.025 164.774C323.403 164.436 323.919 164.267 324.573 164.267C325.205 164.267 325.69 164.416 326.028 164.716C326.37 165.012 326.541 165.368 326.541 165.785C326.541 166.098 326.448 166.374 326.263 166.615C326.08 166.853 325.796 167.068 325.408 167.26ZM325.037 167.011C325.158 166.848 325.247 166.666 325.306 166.464C325.364 166.262 325.394 166.041 325.394 165.8C325.394 165.377 325.302 165.053 325.12 164.828C324.983 164.656 324.795 164.569 324.554 164.569C324.336 164.569 324.15 164.649 323.997 164.809C323.844 164.965 323.768 165.16 323.768 165.395C323.768 165.632 323.852 165.88 324.021 166.137C324.194 166.391 324.533 166.682 325.037 167.011ZM324.061 168.041C323.96 168.132 323.888 168.215 323.846 168.29C323.781 168.404 323.722 168.57 323.67 168.788C323.618 169.006 323.592 169.234 323.592 169.472C323.592 169.778 323.631 170.035 323.709 170.243C323.787 170.448 323.898 170.596 324.041 170.688C324.188 170.779 324.337 170.824 324.49 170.824C324.728 170.824 324.928 170.738 325.091 170.565C325.254 170.39 325.335 170.15 325.335 169.848C325.335 169.216 324.91 168.614 324.061 168.041Z" fill="#757575"></path><path d="M340.308 171.137V171C340.848 170.876 341.305 170.694 341.68 170.453C342.057 170.212 342.355 169.914 342.573 169.56C342.795 169.205 342.949 168.796 343.037 168.334C342.835 168.438 342.663 168.511 342.52 168.554C342.38 168.593 342.231 168.612 342.075 168.612C341.574 168.612 341.156 168.432 340.82 168.07C340.488 167.709 340.322 167.214 340.322 166.586C340.322 166.15 340.412 165.751 340.591 165.39C340.773 165.025 341.032 164.743 341.367 164.545C341.702 164.343 342.051 164.242 342.412 164.242C342.799 164.242 343.166 164.353 343.511 164.574C343.856 164.796 344.131 165.116 344.336 165.536C344.541 165.956 344.644 166.435 344.644 166.972C344.644 167.668 344.476 168.336 344.141 168.974C343.809 169.612 343.312 170.124 342.651 170.512C341.991 170.896 341.209 171.104 340.308 171.137ZM343.11 167.924C343.143 167.559 343.159 167.239 343.159 166.962C343.159 166.369 343.091 165.818 342.954 165.307C342.876 165.023 342.76 164.815 342.607 164.682C342.526 164.61 342.42 164.574 342.29 164.574C342.127 164.574 342 164.644 341.909 164.784C341.782 164.976 341.719 165.342 341.719 165.883C341.719 166.785 341.826 167.406 342.041 167.748C342.181 167.969 342.37 168.08 342.607 168.08C342.734 168.08 342.902 168.028 343.11 167.924Z" fill="#757575"></path><path d="M160.091 169.208H157.244V168.197H160.091V169.208ZM163.737 164.242V169.657C163.737 170.064 163.755 170.325 163.791 170.438C163.826 170.549 163.901 170.64 164.015 170.712C164.129 170.784 164.311 170.819 164.562 170.819H164.713V171H161.227V170.819H161.403C161.686 170.819 161.888 170.787 162.008 170.722C162.129 170.657 162.21 170.567 162.253 170.453C162.295 170.339 162.316 170.074 162.316 169.657V166.225C162.316 165.919 162.301 165.728 162.272 165.653C162.243 165.575 162.187 165.51 162.106 165.458C162.028 165.403 161.937 165.375 161.833 165.375C161.667 165.375 161.465 165.427 161.227 165.531L161.139 165.355L163.576 164.242H163.737Z" fill="#757575"></path><path d="M142.091 169.208H139.244V168.197H142.091V169.208ZM146.621 171H142.724V170.893C143.919 169.47 144.643 168.513 144.897 168.021C145.154 167.53 145.283 167.05 145.283 166.581C145.283 166.239 145.177 165.956 144.965 165.731C144.754 165.504 144.495 165.39 144.189 165.39C143.688 165.39 143.299 165.64 143.022 166.142L142.841 166.078C143.017 165.453 143.284 164.991 143.642 164.691C144 164.392 144.414 164.242 144.882 164.242C145.218 164.242 145.524 164.32 145.8 164.477C146.077 164.633 146.294 164.848 146.45 165.121C146.606 165.391 146.684 165.645 146.684 165.883C146.684 166.316 146.564 166.755 146.323 167.201C145.994 167.803 145.276 168.643 144.17 169.721H145.6C145.952 169.721 146.18 169.706 146.284 169.677C146.391 169.647 146.479 169.599 146.547 169.53C146.616 169.459 146.705 169.311 146.816 169.086H146.992L146.621 171Z" fill="#757575"></path><path d="M124.091 169.208H121.244V168.197H124.091V169.208ZM125.96 167.68V167.509C126.331 167.401 126.588 167.302 126.731 167.211C126.874 167.117 126.998 166.975 127.102 166.786C127.206 166.594 127.258 166.4 127.258 166.205C127.258 165.935 127.159 165.704 126.961 165.512C126.765 165.316 126.521 165.219 126.228 165.219C125.772 165.219 125.385 165.46 125.066 165.941L124.885 165.878C125.12 165.334 125.419 164.926 125.784 164.652C126.152 164.379 126.56 164.242 127.009 164.242C127.468 164.242 127.846 164.382 128.142 164.662C128.442 164.942 128.591 165.269 128.591 165.644C128.591 165.888 128.521 166.124 128.381 166.352C128.245 166.576 128.028 166.775 127.732 166.947C128.113 167.133 128.403 167.362 128.601 167.636C128.803 167.906 128.904 168.246 128.904 168.656C128.904 169.346 128.653 169.934 128.152 170.419C127.654 170.901 126.985 171.142 126.145 171.142C125.585 171.142 125.177 171.049 124.92 170.863C124.734 170.733 124.641 170.565 124.641 170.36C124.641 170.211 124.695 170.084 124.802 169.979C124.91 169.872 125.033 169.818 125.173 169.818C125.281 169.818 125.382 169.841 125.476 169.887C125.528 169.913 125.712 170.056 126.028 170.316C126.347 170.574 126.645 170.702 126.921 170.702C127.162 170.702 127.369 170.608 127.542 170.419C127.714 170.227 127.8 169.984 127.8 169.691C127.8 169.245 127.644 168.835 127.332 168.461C127.019 168.083 126.562 167.823 125.96 167.68Z" fill="#757575"></path><path d="M106.091 169.208H103.244V168.197H106.091V169.208ZM106.729 168.505L109.874 164.242H110.469V168.505H111.075V169.516H110.469V171H109.127V169.516H106.729V168.505ZM107.203 168.505H109.127V165.893L107.203 168.505Z" fill="#757575"></path><path d="M88.0908 169.208H85.2441V168.197H88.0908V169.208ZM90.0035 164.379H93.1041L92.6109 165.639H90.0035L89.7545 166.298C90.8775 166.34 91.7418 166.62 92.3473 167.138C92.8453 167.564 93.0943 168.095 93.0943 168.729C93.0943 169.136 92.9788 169.535 92.7477 169.926C92.5165 170.313 92.191 170.613 91.7711 170.824C91.3512 171.033 90.8906 171.137 90.3893 171.137C89.8489 171.137 89.4339 171.036 89.1441 170.834C88.9423 170.691 88.8414 170.528 88.8414 170.346C88.8414 170.206 88.8935 170.082 88.9977 169.975C89.1051 169.867 89.2288 169.813 89.3688 169.813C89.4957 169.813 89.6243 169.84 89.7545 169.892C89.8847 169.944 90.1077 170.08 90.4234 170.302C90.622 170.438 90.7929 170.533 90.9361 170.585C91.037 170.624 91.151 170.644 91.2779 170.644C91.5449 170.644 91.7711 170.546 91.9566 170.351C92.1454 170.155 92.2398 169.921 92.2398 169.647C92.2398 169.075 91.9534 168.609 91.3805 168.251C90.8076 167.893 90.0849 167.714 89.2125 167.714C89.1246 167.714 88.9928 167.715 88.817 167.719L90.0035 164.379Z" fill="#757575"></path><path d="M70.0908 169.208H67.2441V168.197H70.0908V169.208ZM75.1773 164.242V164.379C74.5882 164.529 74.1145 164.722 73.7564 164.96C73.4016 165.194 73.1201 165.481 72.9117 165.819C72.7066 166.155 72.5471 166.571 72.4332 167.069C72.5764 166.972 72.6952 166.908 72.7896 166.879C73.0012 166.814 73.2145 166.781 73.4293 166.781C73.9241 166.781 74.3359 166.962 74.6646 167.323C74.9967 167.681 75.1627 168.171 75.1627 168.793C75.1627 169.229 75.0732 169.63 74.8941 169.994C74.7151 170.359 74.4612 170.64 74.1324 170.839C73.8036 171.037 73.4521 171.137 73.0777 171.137C72.6708 171.137 72.2949 171.026 71.9498 170.805C71.6048 170.58 71.3346 170.253 71.1393 169.823C70.9472 169.394 70.8512 168.926 70.8512 168.422C70.8512 167.68 71.0286 166.99 71.3834 166.352C71.7415 165.71 72.2477 165.201 72.902 164.823C73.5595 164.442 74.318 164.249 75.1773 164.242ZM72.3697 167.465C72.3437 167.914 72.3307 168.243 72.3307 168.451C72.3307 168.9 72.373 169.335 72.4576 169.755C72.5455 170.175 72.6643 170.469 72.8141 170.639C72.9215 170.759 73.0484 170.819 73.1949 170.819C73.3447 170.819 73.4781 170.733 73.5953 170.561C73.7125 170.385 73.7711 170.03 73.7711 169.496C73.7711 168.598 73.662 167.978 73.4439 167.636C73.304 167.414 73.1152 167.304 72.8775 167.304C72.7473 167.304 72.5781 167.357 72.3697 167.465Z" fill="#757575"></path><path d="M52.0908 169.208H49.2441V168.197H52.0908V169.208ZM54.2525 171.137L56.0543 165.673H54.6822C54.1451 165.673 53.7415 165.743 53.4713 165.883C53.2825 165.98 53.1262 166.164 53.0025 166.435H52.817L53.2955 164.379H57.2408L55.0191 171.137H54.2525Z" fill="#757575"></path><path d="M34.0908 169.208H31.2441V168.197H34.0908V169.208ZM37.8883 167.26C38.3538 167.602 38.676 167.921 38.8551 168.217C39.0374 168.51 39.1285 168.847 39.1285 169.228C39.1285 169.761 38.9267 170.214 38.523 170.585C38.1227 170.953 37.5774 171.137 36.8873 171.137C36.233 171.137 35.7268 170.976 35.3688 170.653C35.0107 170.331 34.8316 169.937 34.8316 169.472C34.8316 169.117 34.9342 168.806 35.1393 168.539C35.3476 168.272 35.6926 168.028 36.1744 167.807C35.6503 167.406 35.3134 167.079 35.1637 166.825C35.0172 166.571 34.9439 166.277 34.9439 165.941C34.9439 165.499 35.1311 165.11 35.5055 164.774C35.8831 164.436 36.399 164.267 37.0533 164.267C37.6848 164.267 38.1699 164.416 38.5084 164.716C38.8502 165.012 39.0211 165.368 39.0211 165.785C39.0211 166.098 38.9283 166.374 38.7428 166.615C38.5605 166.853 38.2757 167.068 37.8883 167.26ZM37.5172 167.011C37.6376 166.848 37.7271 166.666 37.7857 166.464C37.8443 166.262 37.8736 166.041 37.8736 165.8C37.8736 165.377 37.7825 165.053 37.6002 164.828C37.4635 164.656 37.2747 164.569 37.0338 164.569C36.8157 164.569 36.6301 164.649 36.4771 164.809C36.3242 164.965 36.2477 165.16 36.2477 165.395C36.2477 165.632 36.3323 165.88 36.5016 166.137C36.6741 166.391 37.0126 166.682 37.5172 167.011ZM36.5406 168.041C36.4397 168.132 36.3681 168.215 36.3258 168.29C36.2607 168.404 36.2021 168.57 36.15 168.788C36.0979 169.006 36.0719 169.234 36.0719 169.472C36.0719 169.778 36.1109 170.035 36.1891 170.243C36.2672 170.448 36.3779 170.596 36.5211 170.688C36.6676 170.779 36.8173 170.824 36.9703 170.824C37.2079 170.824 37.4081 170.738 37.5709 170.565C37.7337 170.39 37.815 170.15 37.815 169.848C37.815 169.216 37.3902 168.614 36.5406 168.041Z" fill="#757575"></path><path d="M16.0908 169.208H13.2441V168.197H16.0908V169.208ZM16.7877 171.137V171C17.3281 170.876 17.7854 170.694 18.1598 170.453C18.5374 170.212 18.8352 169.914 19.0533 169.56C19.2747 169.205 19.4293 168.796 19.5172 168.334C19.3154 168.438 19.1428 168.511 18.9996 168.554C18.8596 168.593 18.7115 168.612 18.5553 168.612C18.054 168.612 17.6357 168.432 17.3004 168.07C16.9684 167.709 16.8023 167.214 16.8023 166.586C16.8023 166.15 16.8919 165.751 17.0709 165.39C17.2532 165.025 17.512 164.743 17.8473 164.545C18.1826 164.343 18.5309 164.242 18.8922 164.242C19.2796 164.242 19.6458 164.353 19.9908 164.574C20.3359 164.796 20.6109 165.116 20.816 165.536C21.0211 165.956 21.1236 166.435 21.1236 166.972C21.1236 167.668 20.956 168.336 20.6207 168.974C20.2887 169.612 19.7923 170.124 19.1314 170.512C18.4706 170.896 17.6894 171.104 16.7877 171.137ZM19.5904 167.924C19.623 167.559 19.6393 167.239 19.6393 166.962C19.6393 166.369 19.5709 165.818 19.4342 165.307C19.3561 165.023 19.2405 164.815 19.0875 164.682C19.0061 164.61 18.9003 164.574 18.7701 164.574C18.6074 164.574 18.4804 164.644 18.3893 164.784C18.2623 164.976 18.1988 165.342 18.1988 165.883C18.1988 166.785 18.3063 167.406 18.5211 167.748C18.6611 167.969 18.8499 168.08 19.0875 168.08C19.2145 168.08 19.3821 168.028 19.5904 167.924Z" fill="#757575"></path><line x1="232.061" y1="30" x2="239.485" y2="37.4246" stroke="#F57C00" stroke-width="1.5" stroke-linecap="round"></line><line x1="0.75" y1="-0.75" x2="11.25" y2="-0.75" transform="matrix(-0.707107 0.707107 0.707107 0.707107 240.07 30)" stroke="#F57C00" stroke-width="1.5" stroke-linecap="round"></line><line x1="213.061" y1="67" x2="220.485" y2="74.4246" stroke="#F57C00" stroke-width="1.5" stroke-linecap="round"></line><line x1="0.75" y1="-0.75" x2="11.25" y2="-0.75" transform="matrix(-0.707107 0.707107 0.707107 0.707107 221.07 67)" stroke="#F57C00" stroke-width="1.5" stroke-linecap="round"></line><line x1="195.061" y1="103" x2="202.485" y2="110.425" stroke="#F57C00" stroke-width="1.5" stroke-linecap="round"></line><line x1="0.75" y1="-0.75" x2="11.25" y2="-0.75" transform="matrix(-0.707107 0.707107 0.707107 0.707107 203.07 103)" stroke="#F57C00" stroke-width="1.5" stroke-linecap="round"></line><line x1="177.061" y1="139" x2="184.485" y2="146.425" stroke="#F57C00" stroke-width="1.5" stroke-linecap="round"></line><line x1="0.75" y1="-0.75" x2="11.25" y2="-0.75" transform="matrix(-0.707107 0.707107 0.707107 0.707107 185.07 139)" stroke="#F57C00" stroke-width="1.5" stroke-linecap="round"></line><line x1="159.061" y1="175" x2="166.485" y2="182.425" stroke="#F57C00" stroke-width="1.5" stroke-linecap="round"></line><line x1="0.75" y1="-0.75" x2="11.25" y2="-0.75" transform="matrix(-0.707107 0.707107 0.707107 0.707107 167.07 175)" stroke="#F57C00" stroke-width="1.5" stroke-linecap="round"></line><line x1="141.061" y1="211" x2="148.485" y2="218.425" stroke="#F57C00" stroke-width="1.5" stroke-linecap="round"></line><line x1="0.75" y1="-0.75" x2="11.25" y2="-0.75" transform="matrix(-0.707107 0.707107 0.707107 0.707107 149.07 211)" stroke="#F57C00" stroke-width="1.5" stroke-linecap="round"></line><line x1="123.061" y1="247" x2="130.485" y2="254.425" stroke="#F57C00" stroke-width="1.5" stroke-linecap="round"></line><line x1="0.75" y1="-0.75" x2="11.25" y2="-0.75" transform="matrix(-0.707107 0.707107 0.707107 0.707107 131.07 247)" stroke="#F57C00" stroke-width="1.5" stroke-linecap="round"></line><line x1="105.061" y1="283" x2="112.485" y2="290.425" stroke="#F57C00" stroke-width="1.5" stroke-linecap="round"></line><line x1="0.75" y1="-0.75" x2="11.25" y2="-0.75" transform="matrix(-0.707107 0.707107 0.707107 0.707107 113.07 283)" stroke="#F57C00" stroke-width="1.5" stroke-linecap="round"></line><path d="M255 38C255 36.8954 255.895 36 257 36H317C318.105 36 319 36.8954 319 38V52C319 53.1046 318.105 54 317 54H257C255.895 54 255 53.1046 255 52V38Z" fill="#E4F2FF"></path><path d="M260.326 52.52L261.544 49.818L258.688 43.168H260.2L262.3 48.362L264.428 43.168H265.884L261.81 52.52H260.326ZM270.667 45.1V44.064H277.499V45.1H270.667ZM270.667 47.886V46.864H277.499V47.886H270.667ZM283.446 50V48.922L286.736 45.394C287.193 44.8993 287.52 44.4513 287.716 44.05C287.921 43.6487 288.024 43.2427 288.024 42.832C288.024 41.768 287.398 41.236 286.148 41.236C285.196 41.236 284.342 41.5953 283.586 42.314L283.068 41.208C283.441 40.844 283.917 40.5547 284.496 40.34C285.074 40.116 285.676 40.004 286.302 40.004C287.319 40.004 288.098 40.2373 288.64 40.704C289.19 41.1707 289.466 41.838 289.466 42.706C289.466 43.294 289.321 43.868 289.032 44.428C288.752 44.988 288.308 45.5853 287.702 46.22L285.266 48.782H289.858V50H283.446ZM290.884 50L293.726 46.472L291.066 43.168H292.718L294.552 45.506L296.386 43.168H298.038L295.364 46.486L298.22 50H296.54L294.538 47.48L292.55 50H290.884ZM302.097 49.44V46.5H299.213V45.464H302.097V42.608H303.161V45.464H306.045V46.5H303.161V49.44H302.097ZM308.611 50V48.782H310.851V41.81L309.101 42.902L308.513 41.824L311.271 40.13H312.293V48.782H314.393V50H308.611Z" fill="#F57C00"></path><path d="M197.247 148.716C196.613 147.68 196.151 146.635 195.861 145.58C195.581 144.516 195.441 143.429 195.441 142.318C195.441 141.207 195.581 140.125 195.861 139.07C196.151 138.006 196.613 136.956 197.247 135.92L198.241 136.312C197.793 137.367 197.467 138.375 197.261 139.336C197.056 140.297 196.953 141.291 196.953 142.318C196.953 143.335 197.056 144.329 197.261 145.3C197.467 146.261 197.793 147.269 198.241 148.324L197.247 148.716ZM203.08 146.126C201.932 146.126 201.055 145.692 200.448 144.824C199.851 143.947 199.552 142.691 199.552 141.058C199.552 139.397 199.851 138.141 200.448 137.292C201.055 136.433 201.932 136.004 203.08 136.004C204.238 136.004 205.115 136.433 205.712 137.292C206.31 138.141 206.608 139.392 206.608 141.044C206.608 142.687 206.305 143.947 205.698 144.824C205.101 145.692 204.228 146.126 203.08 146.126ZM203.08 144.922C203.79 144.922 204.317 144.609 204.662 143.984C205.008 143.359 205.18 142.379 205.18 141.044C205.18 139.709 205.008 138.739 204.662 138.132C204.326 137.516 203.799 137.208 203.08 137.208C202.371 137.208 201.844 137.516 201.498 138.132C201.153 138.748 200.98 139.719 200.98 141.044C200.98 142.379 201.153 143.359 201.498 143.984C201.844 144.609 202.371 144.922 203.08 144.922ZM208.965 147.722L208.349 147.246C208.564 147.013 208.722 146.798 208.825 146.602C208.928 146.406 208.993 146.205 209.021 146H208.251V144.334H209.917V145.468C209.917 145.897 209.847 146.289 209.707 146.644C209.567 147.008 209.32 147.367 208.965 147.722ZM216.363 146V144.782H218.603V137.81L216.853 138.902L216.265 137.824L219.023 136.13H220.045V144.782H222.145V146H216.363ZM224.754 148.716L223.76 148.324C224.198 147.251 224.52 146.233 224.726 145.272C224.931 144.311 225.034 143.326 225.034 142.318C225.034 141.31 224.931 140.325 224.726 139.364C224.52 138.403 224.198 137.385 223.76 136.312L224.754 135.92C225.388 136.965 225.846 138.02 226.126 139.084C226.415 140.139 226.56 141.217 226.56 142.318C226.56 143.429 226.415 144.516 226.126 145.58C225.846 146.635 225.388 147.68 224.754 148.716Z" fill="#F57C00"></path><path d="M365.001 159.04C365.09 158.484 365.437 157.842 366.039 157.113C366.642 156.385 367.385 156.014 368.27 156.001C368.719 156.001 369.129 156.12 369.501 156.358C369.873 156.597 370.148 156.895 370.328 157.252C370.866 156.418 371.514 156.001 372.27 156.001C372.744 156.001 373.155 156.147 373.501 156.438C373.847 156.729 374.026 157.12 374.039 157.61C374.039 157.994 373.949 158.305 373.77 158.543C373.59 158.782 373.417 158.927 373.251 158.98C373.084 159.033 372.937 159.06 372.808 159.06C372.565 159.06 372.366 158.987 372.212 158.841C372.058 158.696 371.982 158.504 371.982 158.265C371.982 157.656 372.302 157.239 372.943 157.014C372.802 156.842 372.546 156.756 372.174 156.756C372.007 156.756 371.885 156.769 371.808 156.795C371.321 157.007 370.962 157.444 370.732 158.106C369.962 161.033 369.578 162.741 369.578 163.231C369.578 163.602 369.68 163.867 369.885 164.026C370.09 164.185 370.315 164.264 370.558 164.264C371.033 164.264 371.501 164.046 371.962 163.609C372.424 163.172 372.738 162.635 372.905 162C372.943 161.867 372.982 161.794 373.02 161.781C373.058 161.768 373.161 161.755 373.328 161.741H373.405C373.597 161.741 373.693 161.794 373.693 161.9C373.693 161.914 373.68 161.986 373.655 162.119C373.449 162.874 373.052 163.542 372.462 164.125C371.873 164.708 371.187 164.999 370.405 164.999C369.507 164.999 368.828 164.582 368.366 163.748C367.84 164.569 367.238 164.979 366.558 164.979H366.443C365.815 164.979 365.366 164.807 365.097 164.463C364.828 164.118 364.687 163.754 364.674 163.37C364.674 162.946 364.796 162.602 365.039 162.337C365.283 162.072 365.571 161.94 365.905 161.94C366.456 161.94 366.732 162.218 366.732 162.774C366.732 163.039 366.655 163.271 366.501 163.47C366.347 163.668 366.199 163.801 366.058 163.867C365.917 163.933 365.834 163.966 365.808 163.966L365.751 163.986C365.751 163.999 365.789 164.026 365.866 164.065C365.943 164.105 366.046 164.152 366.174 164.204C366.302 164.257 366.424 164.277 366.539 164.264C367.001 164.264 367.398 163.966 367.732 163.37C367.847 163.158 367.994 162.708 368.174 162.019C368.353 161.331 368.533 160.616 368.712 159.874C368.892 159.133 368.994 158.696 369.02 158.563C369.084 158.206 369.116 157.947 369.116 157.789C369.116 157.418 369.02 157.153 368.828 156.994C368.635 156.835 368.417 156.756 368.174 156.756C367.661 156.756 367.18 156.968 366.732 157.391C366.283 157.815 365.969 158.358 365.789 159.02C365.764 159.139 365.732 159.205 365.693 159.219C365.655 159.232 365.552 159.245 365.385 159.258H365.116C365.039 159.179 365.001 159.106 365.001 159.04Z" fill="black"></path><g clip-path="url(#clip0)"><path d="M176.387 2.87481C176.387 2.7017 176.479 2.40495 176.662 1.98454C176.846 1.56414 177.14 1.12519 177.544 0.667696C177.948 0.2102 178.401 -0.0123653 178.902 -9.53674e-07C179.404 -9.53674e-07 179.808 0.142194 180.114 0.426583C180.42 0.710973 180.58 1.10665 180.592 1.6136C180.567 1.84853 180.549 1.97836 180.537 2.00309C180.537 2.04018 180.439 2.32457 180.243 2.85626C180.047 3.38794 179.845 3.98763 179.637 4.65533C179.429 5.32303 179.331 5.85471 179.343 6.25039C179.343 6.78207 179.429 7.15301 179.6 7.36321C179.772 7.57342 180.029 7.6847 180.372 7.69706C180.653 7.69706 180.916 7.62906 181.161 7.49304C181.406 7.35703 181.596 7.21484 181.73 7.06646C181.865 6.91808 182.03 6.71406 182.226 6.4544C182.226 6.44204 182.257 6.31839 182.318 6.08346C182.379 5.84853 182.465 5.48377 182.575 4.98918C182.685 4.49459 182.802 4.03709 182.924 3.61669C183.389 1.76198 183.646 0.791344 183.695 0.70479C183.854 0.370942 184.118 0.204018 184.485 0.204018C184.644 0.204018 184.773 0.247294 184.871 0.333848C184.968 0.420401 185.036 0.49459 185.073 0.556414C185.109 0.618237 185.121 0.673879 185.109 0.723338C185.109 0.88408 184.809 2.18238 184.209 4.61824C183.61 7.0541 183.267 8.38949 183.181 8.62442C182.838 9.6507 182.245 10.4668 181.4 11.0726C180.555 11.6785 179.71 11.9876 178.866 12C178.315 12 177.831 11.864 177.415 11.592C176.999 11.3199 176.791 10.9119 176.791 10.3679C176.791 10.0958 176.834 9.86708 176.919 9.68161C177.005 9.49614 177.121 9.36012 177.268 9.27357C177.415 9.18702 177.537 9.12519 177.635 9.0881C177.733 9.051 177.837 9.03246 177.948 9.03246C178.486 9.03246 178.756 9.29212 178.756 9.81144C178.756 10.0587 178.682 10.2751 178.535 10.4606C178.388 10.6461 178.248 10.7697 178.113 10.8315C177.978 10.8934 177.899 10.9243 177.874 10.9243L177.819 10.9428C177.844 11.0046 177.96 11.0788 178.168 11.1654C178.376 11.2519 178.584 11.2952 178.792 11.2952H178.939C179.147 11.2952 179.306 11.2828 179.417 11.2581C179.821 11.1468 180.194 10.9119 180.537 10.5533C180.88 10.1947 181.143 9.81144 181.326 9.4034C181.51 8.99536 181.651 8.64915 181.749 8.36476C181.847 8.08037 181.896 7.8949 181.896 7.80835L181.785 7.88253C181.712 7.93199 181.596 8 181.437 8.08655C181.277 8.17311 181.118 8.24729 180.959 8.30912C180.714 8.37094 180.476 8.40185 180.243 8.40185C179.68 8.40185 179.184 8.26584 178.756 7.99382C178.327 7.72179 178.046 7.28284 177.911 6.67697C177.899 6.59042 177.892 6.39876 177.892 6.10201C177.892 5.39722 178.107 4.47604 178.535 3.33848C178.964 2.20093 179.178 1.47759 179.178 1.16847C179.178 1.1561 179.178 1.14374 179.178 1.13137C179.178 1.02009 179.178 0.945904 179.178 0.908809C179.178 0.871715 179.153 0.828438 179.104 0.778979C179.056 0.72952 178.988 0.70479 178.902 0.70479H178.829C178.547 0.70479 178.29 0.822256 178.058 1.05719C177.825 1.29212 177.642 1.54559 177.507 1.81762C177.372 2.08964 177.268 2.3493 177.195 2.5966C177.121 2.84389 177.072 2.97991 177.048 3.00464C177.023 3.02937 176.925 3.04173 176.754 3.04173H176.497C176.423 2.96754 176.387 2.9119 176.387 2.87481Z" fill="black"></path></g><rect x="1" y="16" width="359" height="289" stroke="#7C4DFF" stroke-width="2"></rect><defs><clipPath id="clip0"><rect width="9" height="12" fill="white" transform="translate(176)"></rect></clipPath></defs></svg> 